<?xml version="1.0" encoding="utf-8"?>
<!-- Generator: Adobe Illustrator 18.1.0, SVG Export Plug-In . SVG Version: 6.00 Build 0)  -->
<svg version="1.1" id="Layer_1" xmlns="http://www.w3.org/2000/svg" xmlns:xlink="http://www.w3.org/1999/xlink" x="0px" y="0px"
	 viewBox="0 0 453.5 453.5" enable-background="new 0 0 453.5 453.5" xml:space="preserve">
<ellipse fill="#7DBC42" cx="226.8" cy="226.8" rx="226.8" ry="226.8"/>
<path fill="#FFFFFF" d="M350.1,328.3H116.4c-30.1,0-54.6-25.3-54.6-56.4V270c0-23.9,14.4-44.7,35.6-52.8c-0.9-5.3-1.4-10.7-1.4-16.1
	c0-49,38.5-88.9,85.9-88.9c36.9,0,69.4,24.5,81.2,59.8c9.9-7.6,22-11.7,34.5-11.7c30,0,54.7,23.5,57.9,53.6
	c27.6,2.8,49.3,26.9,49.3,56.1v1.8C404.7,303,380.2,328.3,350.1,328.3z M181.9,126c-39.8,0-72.2,33.7-72.2,75.1
	c0,6.5,0.8,12.9,2.4,19.1l1.7,6.7l-6.7,1.7c-18.3,4.5-31.6,22-31.6,41.5v1.8c0,23.5,18.3,42.7,40.9,42.7h233.7
	c22.5,0,40.9-19.1,40.9-42.7V270c0-23.5-18.3-42.7-40.9-42.7h-8v-6.9c0-25.6-20-46.5-44.6-46.5c-12.5,0-24.6,5.6-33,15.4l-9.2,10.7
	l-2.7-13.9C245.8,151.3,216.1,126,181.9,126z"/>
<path fill="#FFFFFF" d="M287.2,280.7c-3.8,0-6.9-3.1-6.9-6.9v-69c0-3.8,3.1-6.9,6.9-6.9s6.9,3.1,6.9,6.9v69
	C294.1,277.6,291,280.7,287.2,280.7z"/>
<path fill="#FFFFFF" d="M251.3,280.7c-3.8,0-6.9-3.1-6.9-6.9v-44.9c0-3.8,3.1-6.9,6.9-6.9c3.8,0,6.9,3.1,6.9,6.9v44.9
	C258.1,277.6,255,280.7,251.3,280.7z"/>
<path fill="#FFFFFF" d="M215.3,280.7c-3.8,0-6.9-3.1-6.9-6.9v-62c0-3.8,3.1-6.9,6.9-6.9s6.9,3.1,6.9,6.9v62
	C222.1,277.6,219.1,280.7,215.3,280.7z"/>
<path fill="#FFFFFF" d="M179.3,280.7c-3.8,0-6.9-3.1-6.9-6.9V166.7c0-3.8,3.1-6.9,6.9-6.9c3.8,0,6.9,3.1,6.9,6.9v107.2
	C186.2,277.6,183.1,280.7,179.3,280.7z"/>
</svg>
