<?xml version="1.0" encoding="utf-8"?>
<!-- Generator: Adobe Illustrator 18.1.0, SVG Export Plug-In . SVG Version: 6.00 Build 0)  -->
<svg version="1.1" id="Layer_1" xmlns="http://www.w3.org/2000/svg" xmlns:xlink="http://www.w3.org/1999/xlink" x="0px" y="0px"
	 viewBox="0 0 34.8 38.1" enable-background="new 0 0 34.8 38.1" xml:space="preserve">
<g id="Bell">
	<path fill="#F5A81C" d="M17.4,33c5.3,0,15.3,0,17.3-4.3c1.1-2.3-4.6-3.9-5.9-9.1c-1.4-5.2-3.1-15.8-7.4-15.9
		C21.2,2.3,19.5,0,17.4,0c-2.1,0-3.8,2.3-3.9,3.6c-4.3,0.1-6,10.7-7.4,15.9s-7,6.8-5.9,9.1C2.1,33,12.1,33,17.4,33z"/>
	<path fill="#F5A81C" d="M20.5,35.4c0,1.5-1.4,2.7-3.1,2.7s-3.1-1.2-3.1-2.7c0-1.5,1.4-0.9,3.1-0.9S20.5,33.9,20.5,35.4z"/>
</g>
</svg>
