<?xml version="1.0" encoding="utf-8"?>
<!-- Generator: Adobe Illustrator 18.1.0, SVG Export Plug-In . SVG Version: 6.00 Build 0)  -->
<svg version="1.1" id="Layer_1" xmlns="http://www.w3.org/2000/svg" xmlns:xlink="http://www.w3.org/1999/xlink" x="0px" y="0px"
	 viewBox="0 0 80 80" enable-background="new 0 0 80 80" xml:space="preserve">
<g id="Composer">
	<g id="Profiler">
		<g id="iconMetrics">
			<g id="BuildDeploy">
				<g>
					<circle fill="#659840" cx="40" cy="40" r="40"/>
				</g>
				<g>
					<g>
						<path fill="#FFFFFF" d="M27.6,53.5c-0.8,1.6-1.2,2.6-5.5,2.8c0.1-4.1,0.9-4.5,2.5-5.3c0.7-0.3,1.5-0.7,2.3-1.4l-1.5-1.9
							c-0.7,0.5-1.3,0.8-2,1.1c-2.6,1.3-3.8,2.6-3.8,8.6l0,1.2l1.2,0c6.4,0,7.6-1.4,8.8-3.9c0.3-0.5,0.4-0.9,0.9-1.7l-1.8-1.6
							C28.2,52.2,27.9,52.9,27.6,53.5z M46.3,27.3c-2.7,0-4.8,2.2-4.8,4.8c0,2.7,2.2,4.8,4.8,4.8s4.8-2.2,4.8-4.8
							C51.2,29.4,49,27.3,46.3,27.3z M46.3,34.5c-1.3,0-2.4-1.1-2.4-2.4s1.1-2.4,2.4-2.4c1.3,0,2.4,1.1,2.4,2.4S47.6,34.5,46.3,34.5
							z M58.3,21.3c0-0.6-0.5-1.1-1.1-1.1c0,0-6.8-0.5-13.3,1.9c-2.4,0.9-4.3,2.3-6.2,4.4c-1.5,1.8-3,5-4.4,7.6c-0.5,1-1,2-1.4,2.8
							h-6.7c-0.3,0-0.7,0.1-0.9,0.4L20,42.1c-0.3,0.3-0.4,0.8-0.2,1.2c0.1,0.4,0.5,0.7,0.9,0.8l7.2,1.6c0.5,0.6,1.3,1.5,2.6,3l2.7,3
							l1.5,6.2c0.1,0.4,0.4,0.7,0.8,0.9c0.1,0,0.2,0.1,0.4,0.1c0.3,0,0.6-0.1,0.8-0.3l4.5-4.5c0.3-0.2,0.4-0.6,0.4-0.9V47
							c0.6-0.4,1.7-0.9,2.7-1.5c2.7-1.5,6.8-3.4,8.5-4.9c2.4-2.1,3.3-3.7,4.1-6C58.8,29.1,58.4,21.6,58.3,21.3z M54.5,33.7
							c-0.7,2-1.4,3.2-3.4,5c-1.5,1.3-5.6,3.2-8.1,4.6c-1.9,1-3,1.6-3.5,2c-0.3,0.2-0.4,0.6-0.4,0.9v6.3l-2.5,2.8l-1.1-4.6
							c0-0.2-0.1-0.4-0.3-0.5c-2.2-2.5-5.6-6.2-5.8-6.5c-0.2-0.2-0.4-0.3-0.7-0.4l-5.5-1.3l2.7-2.9h6.9c0.4,0,0.8-0.2,1-0.6
							c0.5-0.9,1.1-2.1,1.9-3.5c1.2-2.4,2.7-5.6,4-7.2c1.6-1.8,3.2-3,5.2-3.7c4.5-1.7,9.1-1.8,11.2-1.8C56,24.7,55.9,29.9,54.5,33.7
							z"/>
					</g>
				</g>
			</g>
		</g>
	</g>
</g>
</svg>
