<?xml version="1.0" encoding="utf-8"?>
<!-- Generator: Adobe Illustrator 18.0.0, SVG Export Plug-In . SVG Version: 6.00 Build 0)  -->
<!DOCTYPE svg PUBLIC "-//W3C//DTD SVG 1.1//EN" "http://www.w3.org/Graphics/SVG/1.1/DTD/svg11.dtd">
<svg version="1.1" id="Layer_1" xmlns="http://www.w3.org/2000/svg" xmlns:xlink="http://www.w3.org/1999/xlink" x="0px" y="0px"
	 viewBox="0 0 80 80" enable-background="new 0 0 80 80" xml:space="preserve">
<symbol  id="BuildDeploy" viewBox="-120 -120 240 240">
	<g>
		<path fill="#A7A9AC" d="M120,0c0,66.3-53.7,120-120,120S-120,66.3-120,0S-66.3-120,0-120S120-66.3,120,0z"/>
	</g>
	<g>
		<g>
			<path fill="#FFFFFF" d="M-37.2-40.5c-2.3-4.7-3.7-7.9-16.4-8.3c0.4,12.2,2.7,13.5,7.4,15.9c2,1,4.4,2.2,7,4.2l-4.4,5.6
				c-2.1-1.6-4-2.4-5.9-3.4c-7.8-3.9-11.4-7.7-11.4-25.9l0.1-3.7l3.6,0.1c19.2,0,22.8,4.3,26.4,11.8c0.8,1.6,1.2,2.7,2.6,5l-5.4,4.9
				C-35.3-36.5-36.3-38.6-37.2-40.5z M18.9,38.2c-8,0-14.5-6.5-14.5-14.5S10.9,9.1,18.9,9.1s14.5,6.5,14.5,14.5S26.9,38.2,18.9,38.2
				z M18.9,16.4c-4,0-7.3,3.3-7.3,7.3c0,4,3.3,7.3,7.3,7.3c4,0,7.3-3.3,7.3-7.3C26.2,19.7,22.9,16.4,18.9,16.4z M55,56.2
				c-0.1,1.8-1.5,3.3-3.4,3.4c0,0-20.3,1.5-39.8-5.8c-7.1-2.7-13-6.9-18.5-13.3c-4.6-5.3-9.1-15-13.1-22.9c-1.5-3.1-3-6-4.3-8.3
				h-20.2c-1,0-2-0.4-2.7-1.2L-60.1-6.3c-0.8-1-1.1-2.3-0.7-3.5c0.4-1.2,1.4-2.1,2.6-2.4l21.6-4.9c1.5-1.8,3.9-4.5,7.9-8.9l8.2-9.1
				l4.4-18.7c0.3-1.2,1.2-2.2,2.4-2.6c0.4-0.1,0.7-0.2,1.1-0.2c0.9,0,1.7,0.3,2.4,0.9L3.2-42.4c0.8,0.7,1.3,1.7,1.3,2.7v18.7
				c1.8,1.1,5,2.8,8,4.5C20.7-11.8,32.9-6.1,38-1.6c7.2,6.4,9.8,11,12.3,17.9C56.4,32.7,55.1,55.3,55,56.2z M43.5,18.8
				c-2.2-6-4.3-9.6-10.3-15c-4.5-4-16.8-9.7-24.3-13.9C3.3-13.2,0-15-1.5-16.2c-0.8-0.7-1.3-1.7-1.3-2.8V-38l-7.6-8.4l-3.3,13.8
				c-0.1,0.6-0.4,1.1-0.8,1.6c-6.7,7.4-16.7,18.6-17.5,19.4c-0.5,0.6-1.2,1-2,1.2l-16.6,3.8l8.1,8.6h20.6c1.3,0,2.4,0.7,3.1,1.7
				c1.6,2.6,3.4,6.3,5.6,10.6c3.6,7.2,8.1,16.8,12.1,21.5c4.7,5.5,9.5,8.9,15.5,11.2c13.4,5,27.2,5.5,33.5,5.5
				C48,45.8,47.8,30.3,43.5,18.8z"/>
		</g>
	</g>
</symbol>
<use xlink:href="#BuildDeploy"  width="240" height="240" id="XMLID_4_" x="-120" y="-120" transform="matrix(0.3333 0 0 -0.3333 40 40)" overflow="visible"/>
</svg>
