<?xml version="1.0" encoding="utf-8"?>
<!-- Generator: Adobe Illustrator 18.1.0, SVG Export Plug-In . SVG Version: 6.00 Build 0)  -->
<svg version="1.1" id="Layer_1" xmlns="http://www.w3.org/2000/svg" xmlns:xlink="http://www.w3.org/1999/xlink" x="0px" y="0px"
	 viewBox="6 96 600 600" enable-background="new 6 96 600 600" xml:space="preserve">
<path fill="#558CC9" d="M306,691c162.9,0,295-132.1,295-295S468.9,101,306,101S11,233,11,396S143.1,691,306,691z"/>
<path fill="#FFFFFF" d="M243.3,541.6L243.3,541.6c-4.1,0-7.9-1.7-10.8-4.6L113,414.5c-5.9-6.1-5.9-15.9,0.1-21.9
	c6-6.1,15.6-6,21.5,0.1l108.8,111.6l218.1-222.1c6-6.1,15.6-6.1,21.5,0c6,6.1,6,15.9,0,21.9l-228.9,233
	C251.2,540,247.4,541.6,243.3,541.6"/>
</svg>
