<?xml version="1.0" encoding="utf-8"?>
<!-- Generator: Adobe Illustrator 18.1.0, SVG Export Plug-In . SVG Version: 6.00 Build 0)  -->
<svg version="1.1" id="Layer_1" xmlns="http://www.w3.org/2000/svg" xmlns:xlink="http://www.w3.org/1999/xlink" x="0px" y="0px"
	 viewBox="6 96 600 600" enable-background="new 6 96 600 600" xml:space="preserve">
<g>
	<g>
		<path fill="#888888" d="M306,120.6c37.2,0,73.2,7.3,107.2,21.6c32.8,13.8,62.3,33.8,87.6,59c25.3,25.3,45.1,54.7,59,87.6
			c14.3,34,21.6,70,21.6,107.2s-7.3,73.2-21.6,107.2c-13.8,32.8-33.8,62.3-59,87.6c-25.3,25.3-54.7,45.1-87.6,59
			c-34,14.3-70,21.6-107.2,21.6s-73.2-7.3-107.2-21.6c-32.8-13.8-62.3-33.8-87.6-59c-25.3-25.3-45.1-54.7-59-87.6
			c-14.3-34-21.6-70-21.6-107.2s7.3-73.2,21.6-107.2c13.8-32.8,33.8-62.3,59-87.6c25.3-25.3,54.7-45.1,87.6-59
			C232.8,127.9,268.8,120.6,306,120.6 M306,101C143.1,101,11,233.1,11,396s132.1,295,295,295s295-132.1,295-295S468.9,101,306,101
			L306,101z"/>
	</g>
</g>
</svg>
