<?xml version="1.0" encoding="utf-8"?>
<!-- Generator: Adobe Illustrator 18.1.0, SVG Export Plug-In . SVG Version: 6.00 Build 0)  -->
<svg version="1.1" id="Layer_1" xmlns="http://www.w3.org/2000/svg" xmlns:xlink="http://www.w3.org/1999/xlink" x="0px" y="0px"
	 viewBox="0 0 80 80" enable-background="new 0 0 80 80" xml:space="preserve">
<g id="Composer">
	<g>
		<circle fill="#7DBD42" cx="40" cy="40" r="40"/>
	</g>
	<g>
		<g>
			<path fill="#FFFFFF" d="M23.1,33.4l16.2,8.8c0.2,0.1,0.3,0.1,0.5,0.1c0.2,0,0.4,0,0.5-0.1l16.3-8.8c0.4-0.2,0.6-0.6,0.6-1
				c0-0.4-0.2-0.8-0.6-1l-16.2-8.2c-0.3-0.2-0.7-0.2-1,0l-16.3,8.2c-0.4,0.2-0.6,0.5-0.6,1S22.7,33.2,23.1,33.4z M40,25.5l13.8,7
				l-14,7.5L26,32.5L40,25.5z M56.4,39.5l-3.2-1.6l-2.3,1.3l2.7,1.4l-14,7.5l-13.8-7.5l2.9-1.5l-2.3-1.3l-3.4,1.7
				c-0.4,0.2-0.6,0.5-0.6,1c0,0.4,0.2,0.8,0.6,1l16.2,8.8c0.2,0.1,0.3,0.1,0.5,0.1c0.2,0,0.4,0,0.5-0.1l16.3-8.8
				c0.4-0.2,0.6-0.6,0.6-1C57,40,56.8,39.7,56.4,39.5z M56.4,47.1l-3.1-1.5L51,46.9l2.6,1.2l-14,7.5l-13.8-7.5l2.7-1.2l-2.3-1.3
				l-3.2,1.5c-0.4,0.2-0.6,0.5-0.6,1c0,0.4,0.2,0.8,0.6,1l16.2,8.8c0.2,0.1,0.3,0.1,0.5,0.1c0.2,0,0.4,0,0.5-0.1L56.5,49
				c0.4-0.2,0.6-0.6,0.6-1C57,47.7,56.8,47.3,56.4,47.1z"/>
		</g>
	</g>
</g>
</svg>
