<?xml version="1.0" encoding="utf-8"?>
<!-- Generator: Adobe Illustrator 18.0.0, SVG Export Plug-In . SVG Version: 6.00 Build 0)  -->
<!DOCTYPE svg PUBLIC "-//W3C//DTD SVG 1.1//EN" "http://www.w3.org/Graphics/SVG/1.1/DTD/svg11.dtd">
<svg version="1.1" id="Layer_1" xmlns="http://www.w3.org/2000/svg" xmlns:xlink="http://www.w3.org/1999/xlink" x="0px" y="0px"
	 viewBox="0 0 80 80" enable-background="new 0 0 80 80" xml:space="preserve">
<symbol  id="Composer" viewBox="-120 -120 240 240">
	<g>
		<path fill="#A7A9AC" d="M120,0c0,66.3-53.7,120-120,120S-120,66.3-120,0S-66.3-120,0-120S120-66.3,120,0z"/>
	</g>
	<g>
		<g>
			<path fill="#FFFFFF" d="M-50.7,19.8L-2.2-6.6C-1.7-6.9-1.2-7-0.6-7c0.5,0,1.1,0.1,1.6,0.4l49,26.4c1.1,0.6,1.7,1.7,1.7,2.9
				c0,1.2-0.7,2.3-1.8,2.9L1.4,50.2c-0.9,0.5-2,0.5-2.9,0l-49-24.6c-1.1-0.5-1.8-1.6-1.8-2.9C-52.4,21.5-51.8,20.4-50.7,19.8z
				 M-0.1,43.6l41.5-21.1l-42-22.6l-41.5,22.6L-0.1,43.6z M49.3,1.5l-9.7,4.9l-7-3.8l8.2-4.1l-42-22.6L-42.7-1.5l8.7,4.4l-7,3.8
				l-10.2-5.1C-52.3,1-53-0.1-53-1.3c0-1.2,0.6-2.3,1.7-2.9l48.5-26.4c0.5-0.3,1-0.4,1.6-0.4c0.5,0,1.1,0.1,1.6,0.4l49,26.4
				c1.1,0.6,1.7,1.7,1.7,2.9C51.1-0.1,50.4,1,49.3,1.5z M49.3-21.3l-9.2,4.5l-7-3.8l7.7-3.7l-42-22.6l-41.5,22.6l8.1,3.7l-7,3.8
				l-9.6-4.4c-1.1-0.5-1.8-1.6-1.8-2.9c0-1.2,0.6-2.3,1.7-2.9l48.5-26.4c0.5-0.3,1-0.4,1.6-0.4c0.5,0,1.1,0.1,1.6,0.4l49,26.4
				c1.1,0.6,1.7,1.7,1.7,2.9C51.1-23,50.4-21.9,49.3-21.3z"/>
		</g>
	</g>
	<polygon display="none" fill="none" points="-120,120 120,120 120,-120 -120,-120 	"/>
</symbol>
<use xlink:href="#Composer"  width="240" height="240" id="XMLID_1_" x="-120" y="-120" transform="matrix(0.3333 0 0 -0.3333 40 40)" overflow="visible"/>
</svg>
