<?xml version="1.0" encoding="utf-8"?>
<!-- Generator: Adobe Illustrator 18.1.0, SVG Export Plug-In . SVG Version: 6.00 Build 0)  -->
<svg version="1.1" id="Layer_1" xmlns="http://www.w3.org/2000/svg" xmlns:xlink="http://www.w3.org/1999/xlink" x="0px" y="0px"
	 viewBox="0 0 92 32" enable-background="new 0 0 92 32" xml:space="preserve">
<path fill="#7EBC42" d="M39.7,19.4h-9.2v-6.7h9.2c1.4,0,2.5-1.1,2.5-2.5c0-1.4-1.1-2.5-2.5-2.5h-9.2V2.1c0-1.2-1-2.1-2.1-2.1
	s-2.1,1-2.1,2.1v1.9c-7.4,0.4-13.5,4.3-15.1,9.5H3.5C2.1,13.5,1,14.7,1,16c0,1.4,1.1,2.5,2.5,2.5H11c1.5,5.3,7.6,9.3,15.2,9.7v1.5
	c0,1.2,1,2.1,2.1,2.1s2.1-1,2.1-2.1v-5.3h9.2c1.4,0,2.5-1.1,2.5-2.5S41.1,19.4,39.7,19.4z"/>
<polygon fill="#7EBC42" points="57.8,16 48.7,10.7 48.7,14.2 43.6,14.2 43.6,17.7 48.7,17.7 48.7,21.2 "/>
<path fill="#7EBC42" d="M88.5,13.5h-7.6c-1.6-5.3-8-9.3-15.7-9.5V2.2c0-1.2-1-2.1-2.1-2.1h0c-1.2,0-2.1,1-2.1,2.1v1.5v2.3v22.1v1.8
	c0,1.2,1,2.1,2.1,2.1h0c1.2,0,2.1-1,2.1-2.1v-1.6C73,28.1,79.5,24,81,18.6h7.5c1.4,0,2.5-1.1,2.5-2.5C91,14.7,89.9,13.5,88.5,13.5z"
	/>
</svg>
