<?xml version="1.0" encoding="utf-8"?>
<!-- Generator: Adobe Illustrator 18.1.0, SVG Export Plug-In . SVG Version: 6.00 Build 0)  -->
<svg version="1.1" id="Layer_1" xmlns="http://www.w3.org/2000/svg" xmlns:xlink="http://www.w3.org/1999/xlink" x="0px" y="0px"
	 viewBox="0 0 62 32" enable-background="new 0 0 62 32" xml:space="preserve">
<g>
	<path fill="#EEEDED" stroke="#FFFFFF" d="M38.7,19.4h-9v-6.5h9c1.3,0,2.4-1.1,2.4-2.4C41.1,9.1,40,8,38.7,8h-9V2.6
		c0-1.1-0.9-2.1-2.1-2.1c-1.1,0-2.1,0.9-2.1,2.1v1.9c-7.2,0.4-13.2,4.2-14.7,9.2H3.5c-1.3,0-2.4,1.1-2.4,2.4c0,1.3,1.1,2.4,2.4,2.4
		h7.3c1.4,5.1,7.4,9.1,14.8,9.4v1.5c0,1.1,0.9,2.1,2.1,2.1c1.1,0,2.1-0.9,2.1-2.1v-5.2h9c1.3,0,2.4-1.1,2.4-2.4
		C41.1,20.5,40,19.4,38.7,19.4z"/>
	<path fill="#EEEDED" stroke="#FFFFFF" d="M35.4,28c7.8,0,14.4-4.1,15.9-9.5h7.3c1.3,0,2.4-1.1,2.4-2.4c0-1.3-1.1-2.4-2.4-2.4h-7.4
		c-1.6-5.3-8.1-9.2-15.8-9.2c0-1.3-0.8-2.2-1.8-2.2c-1,0-1.8,0.8-1.8,1.8v2.2h7.8c2.3,0,4.1,1.9,4.1,4.1c0,2.3-1.9,4.1-4.1,4.1h-7.8
		v3.1h7.8c2.3,0,4.1,1.9,4.1,4.1c0,2.3-1.9,4.1-4.1,4.1h-7.8v1.8c0,1,0.8,1.8,1.8,1.8C34.5,29.6,35.4,29,35.4,28z"/>
</g>
</svg>
