<?xml version="1.0" encoding="utf-8"?>
<!-- Generator: Adobe Illustrator 18.1.0, SVG Export Plug-In . SVG Version: 6.00 Build 0)  -->
<svg version="1.1" id="Layer_1" xmlns="http://www.w3.org/2000/svg" xmlns:xlink="http://www.w3.org/1999/xlink" x="0px" y="0px"
	 viewBox="0 0 92 32" enable-background="new 0 0 92 32" xml:space="preserve">
<g>
	<path fill-rule="evenodd" clip-rule="evenodd" fill="#6EA542" d="M39.6,19.5h-9.2v-6.7h9.2c1.4,0,2.5-1.1,2.5-2.5
		c0-1.4-1.1-2.5-2.5-2.5h-9.2V2.2c0-1.2-1-2.1-2.1-2.1s-2.1,1-2.1,2.1v1.9C18.7,4.5,12.6,8.4,11,13.6H3.4c-1.4,0-2.5,1.1-2.5,2.5
		c0,1.4,1.1,2.5,2.5,2.5h7.5c1.5,5.3,7.6,9.3,15.2,9.7v1.5c0,1.2,1,2.1,2.1,2.1s2.1-1,2.1-2.1v-5.3h9.2c1.4,0,2.5-1.1,2.5-2.5
		S41,19.5,39.6,19.5z"/>
	<polygon fill-rule="evenodd" clip-rule="evenodd" fill="#6EA542" points="57.7,16 48.6,10.8 48.6,14.2 43.5,14.2 43.5,17.8 
		48.6,17.8 48.6,21.2 	"/>
	<path fill-rule="evenodd" clip-rule="evenodd" fill="#6EA542" d="M88.4,13.6h-7.6c-1.6-5.3-8-9.3-15.7-9.5V2.3c0-1.2-1-2.1-2.1-2.1
		h0c-1.2,0-2.1,1-2.1,2.1v1.5V6v22.1v1.8c0,1.2,1,2.1,2.1,2.1h0c1.2,0,2.1-1,2.1-2.1v-1.6c7.8-0.2,14.3-4.3,15.8-9.7h7.5
		c1.4,0,2.5-1.1,2.5-2.5C90.9,14.7,89.8,13.6,88.4,13.6z"/>
</g>
</svg>
