<?xml version="1.0" encoding="utf-8"?>
<!-- Generator: Adobe Illustrator 18.1.0, SVG Export Plug-In . SVG Version: 6.00 Build 0)  -->
<svg version="1.1" id="Layer_1" xmlns="http://www.w3.org/2000/svg" xmlns:xlink="http://www.w3.org/1999/xlink" x="0px" y="0px"
	 viewBox="0 0 62 60" enable-background="new 0 0 62 60" xml:space="preserve">
<path fill-rule="evenodd" clip-rule="evenodd" fill="#BCBCBB" d="M33.2,30l10.7-10.7c0.6-0.6,0.6-1.6,0-2.2c-0.6-0.6-1.6-0.6-2.2,0
	L31,27.8L20.3,17.1c-0.6-0.6-1.6-0.6-2.2,0c-0.6,0.6-0.6,1.6,0,2.2L28.8,30L18.1,40.7c-0.6,0.6-0.6,1.6,0,2.2
	c0.3,0.3,0.7,0.5,1.1,0.5c0.4,0,0.8-0.2,1.1-0.5L31,32.2l10.7,10.7c0.3,0.3,0.7,0.5,1.1,0.5c0.4,0,0.8-0.2,1.1-0.5
	c0.6-0.6,0.6-1.6,0-2.2L33.2,30"/>
</svg>
