<?xml version="1.0" encoding="utf-8"?>
<!-- Generator: Adobe Illustrator 18.1.0, SVG Export Plug-In . SVG Version: 6.00 Build 0)  -->
<svg version="1.1" id="Layer_1" xmlns="http://www.w3.org/2000/svg" xmlns:xlink="http://www.w3.org/1999/xlink" x="0px" y="0px"
	 viewBox="0 0 30 30" enable-background="new 0 0 30 30" xml:space="preserve">
<path fill="#0D5A2E" d="M15,0C6.7,0,0,6.7,0,15s6.7,15,15,15s15-6.7,15-15S23.3,0,15,0z M15,27.9C7.9,27.9,2.1,22.1,2.1,15
	C2.1,7.9,7.9,2.1,15,2.1S27.9,7.9,27.9,15C27.9,22.1,22.1,27.9,15,27.9z"/>
<path fill="#0D5A2E" d="M21.9,12.9v-0.3l-6-6H9.4v16.5h12.5V13.1C21.9,13,21.9,13,21.9,12.9C21.9,13,21.9,12.9,21.9,12.9z
	 M20.2,13.8h-4.7c-0.4,0-0.8-0.4-0.8-0.8V8.2h0.5l1.2,1.2v2.8h2.8l1.1,1.1V13.8z"/>
</svg>
