<?xml version="1.0" encoding="utf-8"?>
<!-- Generator: Adobe Illustrator 18.1.0, SVG Export Plug-In . SVG Version: 6.00 Build 0)  -->
<svg version="1.1" id="Layer_1" xmlns="http://www.w3.org/2000/svg" xmlns:xlink="http://www.w3.org/1999/xlink" x="0px" y="0px"
	 viewBox="0 0 24 24" enable-background="new 0 0 24 24" xml:space="preserve">
<path fill="#FFFFFF" d="M11.9,2.2c-5.5,0-10,4.5-10,10s4.5,10,10,10s10-4.5,10-10S17.4,2.2,11.9,2.2z M12.9,19.2h-2v-2h2V19.2z
	 M15,11.5l-0.9,0.8C13.4,13,12.9,13,12.9,15H11v-0.3c0-1.1,0.4-2.1,1.1-2.8l1.2-1.3c0.4-0.4,0.6-0.9,0.6-1.4c0-1.1-0.9-2.1-2-2.1
	S9.9,8,9.9,9h-2c0-2,1.8-3.9,4-3.9s4,1.8,4,4.1C15.9,10,15.6,10.9,15,11.5z"/>
</svg>
