<?xml version="1.0" encoding="utf-8"?>
<!-- Generator: Adobe Illustrator 18.1.0, SVG Export Plug-In . SVG Version: 6.00 Build 0)  -->
<svg version="1.1" id="Layer_1" xmlns="http://www.w3.org/2000/svg" xmlns:xlink="http://www.w3.org/1999/xlink" x="0px" y="0px"
	 viewBox="0 0 164 164" enable-background="new 0 0 164 164" xml:space="preserve">
<g>
	<path fill-rule="evenodd" clip-rule="evenodd" fill="#7DBE42" d="M82,163c44.7,0,81-36.3,81-81S126.7,1,82,1C37.3,1,1,37.3,1,82
		S37.3,163,82,163L82,163z M82,163"/>
	<g>
		<path fill-rule="evenodd" clip-rule="evenodd" fill="#FFFFFF" d="M113.5,48.9h-63c-1.7,0-3.1,1.4-3.1,3.1v43.2
			c0,1.7,1.4,3.1,3.1,3.1h20.4l-15.2,16.8c-1.1,1.3-1,3.2,0.2,4.4c0.6,0.5,1.3,0.8,2.1,0.8c0.9,0,1.7-0.3,2.3-1l19-21h5.6l19,21
			c0.6,0.7,1.5,1,2.3,1c0.8,0,1.5-0.3,2.1-0.8c1.3-1.2,1.4-3.1,0.2-4.4L93.3,98.3h20.2c1.7,0,3.1-1.4,3.1-3.1V52
			C116.6,50.3,115.2,48.9,113.5,48.9L113.5,48.9L113.5,48.9z M53.6,55.1h56.8v37H53.6V55.1L53.6,55.1z M53.6,55.1"/>
		<path fill-rule="evenodd" clip-rule="evenodd" fill="#FFFFFF" d="M61,86.8c1,0,2-0.5,2.6-1.3l7-10.2l4.1,6.2
			c0.6,0.9,1.7,1.2,2.6,1.4c1.1,0,2-0.6,2.6-1.5l7.3-11.8l7.1,11.9C95,82.4,95.9,83,97,83c1.1,0.1,2.1-0.5,2.7-1.4l5.9-8.7
			c1-1.4,0.6-3.4-0.8-4.3c-1.4-1-3.4-0.6-4.3,0.8l-3.2,4.7L90,62c-0.5-0.9-1.6-1.5-2.6-1.5c-1.3,0-2.1,0.5-2.7,1.5l-7.5,12l-4-6
			c-0.6-0.9-1.5-1.4-2.6-1.4h0c-1,0-2,0.5-2.6,1.3l-9.6,13.9c-1,1.4-0.6,3.3,0.8,4.3C59.8,86.6,60.4,86.8,61,86.8"/>
	</g>
</g>
</svg>
