<?xml version="1.0" encoding="utf-8"?>
<!-- Generator: Adobe Illustrator 18.1.0, SVG Export Plug-In . SVG Version: 6.00 Build 0)  -->
<svg version="1.1" id="Layer_1" xmlns="http://www.w3.org/2000/svg" xmlns:xlink="http://www.w3.org/1999/xlink" x="0px" y="0px"
	 viewBox="0 0 164 164" enable-background="new 0 0 164 164" xml:space="preserve">
<g>
	<path fill-rule="evenodd" clip-rule="evenodd" fill="#7DBE42" d="M82,163c44.7,0,81-36.3,81-81S126.7,1,82,1C37.3,1,1,37.3,1,82
		S37.3,163,82,163L82,163z M82,163"/>
	<path fill-rule="evenodd" clip-rule="evenodd" fill="#FFFFFF" d="M76.4,86.4c-2.6,4.6-0.9,8.3,2.8,10.4c3.6,2.1,7.8,1.8,10.4-2.8
		c2.6-4.6,19.2-45.2,17.8-46C105.9,47.2,79,81.8,76.4,86.4L76.4,86.4L76.4,86.4z M83.5,57.5c1.7,0,3.3,0.1,4.9,0.4
		c1.7-2.1,3.5-4.4,5.4-6.6c-3.2-0.9-6.7-1.5-10.2-1.5c-21.4,0-38.1,18-38.1,41c0,1.4,0.1,2.8,0.2,4.2c0.2,2.1,2.1,3.6,4.1,3.5
		c2.1-0.2,3.6-2,3.5-4.1C53.1,93.2,53,92,53,90.8C53,72.1,66.4,57.5,83.5,57.5L83.5,57.5L83.5,57.5z M111,62.2
		c-1.1,2.9-2.2,5.8-3.2,8.3c3.9,5.6,6.2,12.6,6.2,20.3c0,1.2-0.1,2.4-0.2,3.6c-0.2,2.1,1.4,3.9,3.5,4.1c0.1,0,0.2,0,0.3,0
		c1.9,0,3.6-1.5,3.8-3.5c0.1-1.4,0.2-2.9,0.2-4.3C121.6,79.6,117.6,69.6,111,62.2L111,62.2L111,62.2z M111,62.2"/>
</g>
</svg>
