<?xml version="1.0" encoding="utf-8"?>
<!-- Generator: Adobe Illustrator 18.1.0, SVG Export Plug-In . SVG Version: 6.00 Build 0)  -->
<svg version="1.1" id="Layer_1" xmlns="http://www.w3.org/2000/svg" xmlns:xlink="http://www.w3.org/1999/xlink" x="0px" y="0px"
	 viewBox="0 0 164 164" enable-background="new 0 0 164 164" xml:space="preserve">
<g>
	<path fill-rule="evenodd" clip-rule="evenodd" fill="#7DBE42" d="M82,163c44.7,0,81-36.3,81-81S126.7,1,82,1C37.3,1,1,37.3,1,82
		S37.3,163,82,163L82,163z M82,163"/>
	<g>
		<path fill="none" stroke="#FFFFFF" stroke-width="6" stroke-miterlimit="10" d="M82,35.2c-4.8,0-22.9,17.1-17,56.5
			c-13.4,5.1-6.6,26.5-3.5,37.2c2.2-14.4,4.5-19.8,8.8-20c1.5,5,3.2,10.8,3.2,10.8h17.1c0,0,1.7-5.7,3.2-10.8
			c4.3,0.2,6.6,5.6,8.8,20c3.1-10.6,9.9-32-3.5-37.2C104.9,52.3,87.1,35.2,82,35.2z"/>
		<circle fill="#FFFFFF" cx="82" cy="63.3" r="7.3"/>
	</g>
</g>
</svg>
