<?xml version="1.0" encoding="utf-8"?>
<!-- Generator: Adobe Illustrator 18.1.0, SVG Export Plug-In . SVG Version: 6.00 Build 0)  -->
<svg version="1.1" id="Layer_1" xmlns="http://www.w3.org/2000/svg" xmlns:xlink="http://www.w3.org/1999/xlink" x="0px" y="0px"
	 viewBox="0 0 164 164" enable-background="new 0 0 164 164" xml:space="preserve">
<g>
	<path fill-rule="evenodd" clip-rule="evenodd" fill="#7DBE42" d="M82,163c44.7,0,81-36.3,81-81S126.7,1,82,1C37.3,1,1,37.3,1,82
		S37.3,163,82,163L82,163z M82,163"/>
	<path fill-rule="evenodd" clip-rule="evenodd" fill="#FFFFFF" d="M126.8,80.6c0-0.9-0.5-1.6-1.3-2L113,73.2l12.5-5.5
		c0.8-0.3,1.3-1.1,1.3-2c0-0.9-0.5-1.6-1.3-2L83.3,45.2c-0.6-0.2-1.2-0.2-1.7,0L39.3,63.7c-0.8,0.3-1.3,1.1-1.3,2
		c0,0.9,0.5,1.6,1.3,2l12.5,5.5l-12.5,5.5c-0.8,0.3-1.3,1.1-1.3,2c0,0.9,0.5,1.6,1.3,2l12.5,5.5l-12.5,5.5c-0.8,0.3-1.3,1.1-1.3,2
		c0,0.9,0.5,1.6,1.3,2l42.3,18.5c0.3,0.1,0.6,0.2,0.9,0.2c0.3,0,0.6-0.1,0.9-0.2l42.3-18.5c0.8-0.3,1.3-1.1,1.3-2
		c0-0.9-0.5-1.6-1.3-2L113,88.1l12.5-5.5C126.3,82.3,126.8,81.5,126.8,80.6L126.8,80.6L126.8,80.6z M82.4,111.8L45.5,95.6l11.6-5.1
		l24.4,10.7c0.3,0.1,0.6,0.2,0.9,0.2c0.3,0,0.6-0.1,0.9-0.2l24.4-10.7l11.6,5.1L82.4,111.8L82.4,111.8L82.4,111.8z M105,86.9
		l-22.5,9.9L45.5,80.6l11.6-5.1l24.4,10.7c0.3,0.1,0.6,0.2,0.9,0.2c0.3,0,0.6-0.1,0.9-0.2l24.4-10.7l11.6,5.1L105,86.9L105,86.9
		L105,86.9z M82.4,49.5l36.9,16.2L82.4,81.9L45.5,65.7L82.4,49.5L82.4,49.5L82.4,49.5z M82.4,49.5"/>
</g>
</svg>
