<?xml version="1.0" encoding="utf-8"?>
<!-- Generator: Adobe Illustrator 19.0.0, SVG Export Plug-In . SVG Version: 6.00 Build 0)  -->
<svg version="1.1" id="Layer_1" xmlns="http://www.w3.org/2000/svg" xmlns:xlink="http://www.w3.org/1999/xlink" x="0px" y="0px"
	 viewBox="0 0 30 30" style="enable-background:new 0 0 30 30;" xml:space="preserve">
<style type="text/css">
	.st0{fill:#0D5A2E;}
</style>
<path class="st0" d="M15,0C6.7,0,0,6.7,0,15s6.7,15,15,15s15-6.7,15-15S23.3,0,15,0z M15,27.9C7.9,27.9,2.1,22.1,2.1,15
	C2.1,7.9,7.9,2.1,15,2.1S27.9,7.9,27.9,15C27.9,22.1,22.1,27.9,15,27.9z M17.5,5.9H7.8c-1.1,0-1.9,0.9-1.9,1.9V16
	c0,1.1,0.9,1.9,1.9,1.9h1.3v2.9l2.7-2.9h5.7c1.1,0,1.9-0.9,1.9-1.9V7.8C19.4,6.7,18.5,5.9,17.5,5.9z M22.2,12h-0.7v4
	c0,2.2-1.8,4-4,4h-4.7l-1.4,1.5c0.3,0.3,0.7,0.4,1.2,0.4h5.7l2.7,2.9V22h1.3c1.1,0,1.9-0.9,1.9-1.9v-6.2C24.1,12.9,23.2,12,22.2,12z
	"/>
</svg>
