<?xml version="1.0" encoding="utf-8"?>
<!-- Generator: Adobe Illustrator 18.1.0, SVG Export Plug-In . SVG Version: 6.00 Build 0)  -->
<svg version="1.1" id="Layer_1" xmlns="http://www.w3.org/2000/svg" xmlns:xlink="http://www.w3.org/1999/xlink" x="0px" y="0px"
	 viewBox="0 0 30 30" enable-background="new 0 0 30 30" xml:space="preserve">
<g id="Key_x5F_green_x5F_down">
	<path fill="#5F9440" d="M23.3,8.2c-3,0-5.6,2-6.4,4.7H2c-1.1,0-2,0.9-2,2c0,1.1,0.9,2,2,2h1.4v3.3c0,0.9,0.8,1.7,1.7,1.7h3.8
		c0.9,0,1.7-0.8,1.7-1.7v-3.3h6.3c0.8,2.7,3.4,4.7,6.4,4.7c3.7,0,6.7-3,6.7-6.7C30,11.2,27,8.2,23.3,8.2z M23.3,17.7
		c-1.5,0-2.7-1.2-2.8-2.6c0-0.1,0-0.1,0-0.2c0-0.1,0-0.1,0-0.2c0.1-1.5,1.3-2.6,2.8-2.6c1.5,0,2.8,1.3,2.8,2.8S24.8,17.7,23.3,17.7z
		"/>
</g>
</svg>
