<?xml version="1.0" encoding="utf-8"?>
<!-- Generator: Adobe Illustrator 14.0.0, SVG Export Plug-In . SVG Version: 6.00 Build 43363)  -->
<!DOCTYPE svg PUBLIC "-//W3C//DTD SVG 1.1//EN" "http://www.w3.org/Graphics/SVG/1.1/DTD/svg11.dtd">
<svg version="1.1" id="Layer_1" xmlns="http://www.w3.org/2000/svg" xmlns:xlink="http://www.w3.org/1999/xlink" x="0px" y="0px"
	 width="145.306px" height="118.998px" viewBox="0 0 145.306 118.998" enable-background="new 0 0 145.306 118.998"
	 xml:space="preserve">
<g>
	<polygon fill="#08592B" points="104.863,19.391 104.863,6.468 93.672,0 82.461,6.468 82.461,19.391 93.672,25.854 	"/>
	<polygon fill="#FFFFFF" points="64.29,93.95 71.317,89.895 78.334,93.95 78.334,102.05 71.317,106.102 64.29,102.05 	"/>
	<polygon fill="#FFFFFF" points="106.833,24.659 88.283,35.366 88.283,45.024 93.496,48.035 93.496,59.786 106.175,67.103 
		106.175,45.478 124.528,34.882 	"/>
	<polygon fill="#08592B" points="88.283,35.366 99.209,29.06 93.668,25.858 79.997,33.748 79.997,40.236 79.991,40.233 
		66.472,48.035 66.472,63.642 79.991,71.449 93.496,63.642 93.496,48.035 88.283,45.024 	"/>
	<polygon fill="#08592B" points="42.142,58.077 51.169,52.864 60.201,58.077 60.201,68.499 51.169,73.709 42.142,68.499 	"/>
	<polygon fill="#FFFFFF" points="58.899,69.25 51.168,73.71 47.37,71.517 42.142,74.537 42.142,89.488 55.102,96.967 68.036,89.488 
		68.036,74.537 	"/>
	<polygon fill="#08592B" points="22.501,29.979 28.113,26.74 33.721,29.979 33.721,36.453 28.113,39.689 22.501,36.453 	"/>
	<polygon fill="#FFFFFF" points="13.704,37.137 16.764,35.366 19.827,37.137 19.827,40.666 16.764,42.433 13.704,40.666 	"/>
	<polygon fill="#FFFFFF" points="30.817,57.535 26.36,60.106 26.36,57.861 23.3,56.101 20.243,57.861 20.243,61.398 23.3,63.166 
		25.215,62.06 25.215,67.24 30.817,70.479 36.419,67.24 36.419,60.768 	"/>
	<polygon fill="#08592B" points="16.17,69.682 19.229,67.915 22.29,69.682 22.29,73.22 19.229,74.983 16.17,73.22 	"/>
	<polygon fill="#08592B" points="0,24.117 3.054,22.351 6.116,24.117 6.116,27.652 3.054,29.416 0,27.652 	"/>
	<polygon fill="#08592B" points="59.319,19.958 68.738,14.525 78.135,19.958 78.135,30.819 68.738,36.251 59.319,30.819 	"/>
	<polygon fill="#FFFFFF" points="59.319,30.819 59.319,25.46 54.495,22.673 42.142,29.804 42.142,44.062 54.495,51.188 
		66.839,44.062 66.839,35.156 	"/>
	<path fill="#FFFFFF" d="M53.125,103.924h-0.664v-4.821h-0.028l-1.853,4.821h-0.435l-1.856-4.821h-0.025v4.821H47.6v-5.386h1.229
		l1.534,3.979h0.024l1.511-3.979h1.228V103.924z M46.601,99.054h-1.712v4.87h-0.665v-4.87h-1.715v-0.516h4.092V99.054z"/>
	<polygon fill="#FFFFFF" points="101.381,81.839 115.597,73.627 129.806,81.839 129.806,98.254 115.597,106.454 101.381,98.254 	"/>
	<polygon fill="#08592B" points="118.341,14.229 106.833,20.874 106.833,24.66 124.529,34.883 106.174,45.478 106.174,74.45 
		93.721,67.259 71.32,80.2 71.32,89.897 78.334,93.95 78.334,102.05 71.354,106.081 93.721,118.998 115.523,106.41 101.381,98.254 
		101.381,81.84 115.597,73.627 129.807,81.84 129.807,98.254 145.306,89.304 145.306,29.773 	"/>
</g>
</svg>
