<?xml version="1.0" encoding="utf-8"?>
<!-- Generator: Adobe Illustrator 18.1.0, SVG Export Plug-In . SVG Version: 6.00 Build 0)  -->
<svg version="1.1" id="Layer_1" xmlns="http://www.w3.org/2000/svg" xmlns:xlink="http://www.w3.org/1999/xlink" x="0px" y="0px"
	 viewBox="6 96 600 600" enable-background="new 6 96 600 600" xml:space="preserve">
<path fill="#ABABAB" d="M177.7,371.3c0-61.2,48.4-110.6,107.6-110.6s107.6,49.4,107.6,110.6s-48.4,110.6-107.6,110.6
	S177.7,432.5,177.7,371.3z M457,535.2l-71.1-73c20.7-24.7,34.5-56.3,34.5-90.8c0-76-60.2-138.2-134.2-138.2S152,295.3,152,371.3
	s60.2,138.2,134.2,138.2c30.6,0,58.2-10.9,80.9-28.6l72.1,74c3,3,5.9,3.9,9.9,3.9s6.9-1,9.9-3.9C462,549,462,540.1,457,535.2z"/>
</svg>
