<?xml version="1.0" encoding="utf-8"?>
<!-- Generator: Adobe Illustrator 18.1.0, SVG Export Plug-In . SVG Version: 6.00 Build 0)  -->
<svg version="1.1" id="Layer_1" xmlns="http://www.w3.org/2000/svg" xmlns:xlink="http://www.w3.org/1999/xlink" x="0px" y="0px"
	 viewBox="0 0 28.2 28.2" enable-background="new 0 0 28.2 28.2" xml:space="preserve">
<path fill="#0D5A2E" d="M20.1,10.2h-12c-0.8,0-1.5-0.7-1.5-1.5s0.7-1.5,1.5-1.5h12c0.8,0,1.5,0.7,1.5,1.5S20.9,10.2,20.1,10.2z
	 M21.6,14.1c0-0.8-0.7-1.5-1.5-1.5h-12c-0.8,0-1.5,0.7-1.5,1.5s0.7,1.5,1.5,1.5h12C20.9,15.6,21.6,14.9,21.6,14.1z M21.6,19.5
	c0-0.8-0.7-1.5-1.5-1.5h-12c-0.8,0-1.5,0.7-1.5,1.5S7.3,21,8.1,21h12C20.9,21,21.6,20.3,21.6,19.5z M14.1,2C7.4,2,2,7.4,2,14.1
	s5.4,12.1,12.1,12.1s12.1-5.4,12.1-12.1S20.8,2,14.1,2 M14.1,0c7.8,0,14.1,6.3,14.1,14.1c0,7.8-6.3,14.1-14.1,14.1
	C6.3,28.2,0,21.9,0,14.1C0,6.3,6.3,0,14.1,0L14.1,0z"/>
</svg>
