<?xml version="1.0" encoding="utf-8"?>
<!-- Generator: Adobe Illustrator 18.1.0, SVG Export Plug-In . SVG Version: 6.00 Build 0)  -->
<svg version="1.1" id="Layer_1" xmlns="http://www.w3.org/2000/svg" xmlns:xlink="http://www.w3.org/1999/xlink" x="0px" y="0px"
	 viewBox="0 0 30 30" enable-background="new 0 0 30 30" xml:space="preserve">
<path fill-rule="evenodd" clip-rule="evenodd" fill="#E6E7E8" d="M20.8,3c-0.6-0.3-1.4,0-1.7,0.6c-0.3,0.6,0,1.3,0.7,1.6
	c4.6,1.8,7.6,6.1,7.6,10.8c0,6.4-5.6,11.7-12.5,11.7c-6.9,0-12.4-5.2-12.4-11.7c0-4.7,2.9-8.9,7.5-10.7c0.6-0.3,0.9-1,0.7-1.6
	C10.4,3,9.7,2.7,9,3c-5.5,2.2-9,7.3-9,12.9C0,23.7,6.7,30,15,30c8.3,0,15-6.3,15-14.1C30,10.3,26.4,5.2,20.8,3"/>
<path fill-rule="evenodd" clip-rule="evenodd" fill="#E6E7E8" d="M15,11.3c0.7,0,1.3-0.5,1.3-1.2V1.2C16.3,0.5,15.7,0,15,0
	c-0.7,0-1.3,0.5-1.3,1.2v8.9C13.7,10.8,14.3,11.3,15,11.3"/>
</svg>
