<?xml version="1.0" encoding="utf-8"?>
<!-- Generator: Adobe Illustrator 19.0.0, SVG Export Plug-In . SVG Version: 6.00 Build 0)  -->
<svg version="1.1" id="Layer_1" xmlns="http://www.w3.org/2000/svg" xmlns:xlink="http://www.w3.org/1999/xlink" x="0px" y="0px"
	 viewBox="0 0 48 40" style="enable-background:new 0 0 48 40;" xml:space="preserve">
<style type="text/css">
	.st0{fill:#7DBE42;}
	.st1{fill:#FFFFFF;}
</style>
<g id="Rate_Limit_Icon">
	<g id="XMLID_1_">
		<path id="XMLID_85_" class="st0" d="M45,40H3c-1.6,0-3-1.3-3-3V3c0-1.6,1.4-3,3-3l42,0c1.7,0,3,1.4,3,3v34C48,38.7,46.7,40,45,40z
			"/>
		<path id="XMLID_80_" class="st1" d="M6.5,30.4c-1.2-0.5-1.5-1.4-1.5-2.7c-0.1-5,1.1-9.5,4.2-13.4c2.9-3.7,6.7-5.9,11.2-6.8
			c1.4-0.3,2.8-0.3,4.2-0.4c1,0,1.9,0.8,1.9,1.8c0,1-0.7,1.9-1.8,1.9c-2.6,0.1-5.2,0.4-7.5,1.7c-4.9,2.7-7.8,6.8-8.3,12.6
			c-0.1,0.9-0.2,1.7-0.1,2.6c0.1,1.4-0.4,2.2-1.7,2.6C6.9,30.4,6.7,30.4,6.5,30.4z"/>
		<path id="XMLID_60_" class="st1" d="M23.7,30.4c-0.3-0.1-0.6-0.2-0.9-0.3c-2.4-0.9-3.3-3.6-1.9-5.8c1.1-1.7,2.3-3.4,3.6-5
			c2.4-3,4.8-5.9,7.3-8.9c0.6-0.7,1.4-1.3,2.1-2c0.1,0.1,0.2,0.1,0.3,0.2c-0.2,0.9-0.2,1.8-0.5,2.6c-2,5.5-4.1,10.9-6.1,16.3
			c-0.6,1.5-1.7,2.3-3.2,2.7C24.2,30.4,23.9,30.4,23.7,30.4z"/>
		<path id="XMLID_58_" class="st1" d="M40.8,30.4c-1.2-0.5-1.7-1.3-1.6-2.7c0.2-3.4-0.6-6.6-2.3-9.5c-0.6-1-0.3-2.1,0.6-2.7
			c1-0.6,2-0.3,2.7,0.8c1.5,2.6,2.4,5.4,2.6,8.4c0.1,1,0.2,2,0.2,2.9c0,1.7-0.3,2.2-1.8,2.7C41,30.4,40.9,30.4,40.8,30.4z"/>
	</g>
</g>
</svg>
