<?xml version="1.0" encoding="utf-8"?>
<!-- Generator: Adobe Illustrator 19.0.0, SVG Export Plug-In . SVG Version: 6.00 Build 0)  -->
<svg version="1.1" id="Layer_1" xmlns="http://www.w3.org/2000/svg" xmlns:xlink="http://www.w3.org/1999/xlink" x="0px" y="0px"
	 viewBox="0 0 48 40" style="enable-background:new 0 0 48 40;" xml:space="preserve">
<style type="text/css">
	.st0{fill:#7DBE42;}
	.st1{fill:#FFFFFF;}
</style>
<symbol  id="Reverse_Proxy_Icon" viewBox="-18.8 -16.2 37.5 30.5">
	<path id="XMLID_14_" class="st0" d="M15.7-16.2h-31.5c-1.7,0-3,1.4-3,3v24.5c0,1.6,1.4,3,3,3h31.5c1.7,0,3-1.4,3-3v-24.5
		C18.7-14.8,17.4-16.2,15.7-16.2z"/>
	<path id="XMLID_13_" class="st1" d="M-6.6-9.8c0,1.2,0,2.4,0,3.6c0.2,0,0.4,0,0.5,0c2.8,0,5.5,0,8.3,0c2.1,0,3.8,0.9,4.7,2.9
		c1.4,3-0.5,6.5-3.7,7c0,0-0.1,0-0.1,0c-2.1,0-4.3,0-6.5,0c0-0.8,0-1.6,0-2.6C-6,2.6-8.4,4-11,5.5C-8.4,7-6,8.4-3.4,9.9
		c0-0.9,0-1.7,0-2.5c0.2,0,0.4,0,0.6,0c2,0,3.9,0,5.9-0.1c2.1-0.1,3.9-1,5.4-2.5c2.3-2.4,3-5.3,2.1-8.5C9.6-6.9,7.5-8.8,4.3-9.6
		C3.7-9.8,3-9.8,2.4-9.9c-2.9,0-5.8,0-8.7,0C-6.4-9.9-6.5-9.9-6.6-9.8z"/>
</symbol>
<g id="Rate_Limit_Icon">
	
		<use xlink:href="#Reverse_Proxy_Icon"  width="37.5" height="30.5" id="XMLID_285_" x="-18.8" y="-16.2" transform="matrix(1.28 0 0 -1.3115 24.0364 18.8103)" style="overflow:visible;"/>
</g>
</svg>
