<?xml version="1.0" encoding="utf-8"?>
<!-- Generator: Adobe Illustrator 19.0.0, SVG Export Plug-In . SVG Version: 6.00 Build 0)  -->
<svg version="1.1" id="Layer_1" xmlns="http://www.w3.org/2000/svg" xmlns:xlink="http://www.w3.org/1999/xlink" x="0px" y="0px"
	 viewBox="0 0 48 40" style="enable-background:new 0 0 48 40;" xml:space="preserve">
<style type="text/css">
	.st0{fill:#7DBE42;}
	.st1{fill:#FFFFFF;}
	.st2{display:none;fill:none;}
</style>
<symbol  id="Metrics_Icon" viewBox="-19 -18 38 31">
	<path id="XMLID_279_" class="st0" d="M19-15c0-1.7-1.3-3-3-3h-32c-1.7,0-3,1.3-3,3v25c0,1.7,1.3,3,3,3h32c1.7,0,3-1.3,3-3V-15z"/>
	<path id="XMLID_259_" class="st1" d="M13.1,7.5c-1.8,0-3.3-1.5-3.3-3.3c0-0.5,0.1-1,0.3-1.4L5.8-0.7c-0.5,0.4-1.2,0.7-2,0.7
		c-1,0-2-0.5-2.6-1.2l-2.6,1.2c0,0.2,0,0.4,0,0.6c0,1.8-1.5,3.3-3.3,3.3s-3.3-1.5-3.3-3.3c0-0.7,0.2-1.3,0.5-1.8l-3.3-3.7
		c-0.4,0.2-0.9,0.3-1.4,0.3c-1.8,0-3.3-1.5-3.3-3.3s1.5-3.3,3.3-3.3S-8.8-9.8-8.8-8c0,0.7-0.2,1.4-0.6,1.9l3.3,3.6
		c0.5-0.2,1-0.4,1.5-0.4c1,0,2,0.5,2.6,1.2l2.6-1.2c0-0.2,0-0.4,0-0.6c0-1.8,1.5-3.3,3.3-3.3s3.3,1.5,3.3,3.3C7.1-2.9,7-2.4,6.8-2
		l4.4,3.5c0.5-0.4,1.2-0.6,1.9-0.6c1.8,0,3.3,1.5,3.3,3.3C16.4,6,14.9,7.5,13.1,7.5z M-12.1-9.6c-0.9,0-1.6,0.7-1.6,1.6
		s0.7,1.6,1.6,1.6s1.6-0.7,1.6-1.6S-11.2-9.6-12.1-9.6z M-4.6-1.2c-0.9,0-1.6,0.7-1.6,1.6s0.7,1.6,1.6,1.6S-3,1.3-3,0.4
		S-3.7-1.2-4.6-1.2z M3.8-5C2.9-5,2.2-4.3,2.2-3.4s0.7,1.6,1.6,1.6s1.6-0.7,1.6-1.6S4.7-5,3.8-5z M13.1,2.6c-0.9,0-1.6,0.7-1.6,1.6
		c0,0.9,0.7,1.6,1.6,1.6s1.6-0.7,1.6-1.6C14.7,3.3,14,2.6,13.1,2.6z"/>
	<polygon id="XMLID_280_" class="st2" points="-19,13 19,13 19,-18 -19,-18 	"/>
</symbol>
<g id="Rate_Limit_Icon">
	
		<use xlink:href="#Metrics_Icon"  width="38" height="31" id="XMLID_78_" x="-19" y="-18" transform="matrix(1.2632 0 0 -1.2903 24 16.7742)" style="overflow:visible;"/>
</g>
</svg>
