<?xml version="1.0" encoding="utf-8"?>
<!-- Generator: Adobe Illustrator 19.0.0, SVG Export Plug-In . SVG Version: 6.00 Build 0)  -->
<svg version="1.1" id="Layer_1" xmlns="http://www.w3.org/2000/svg" xmlns:xlink="http://www.w3.org/1999/xlink" x="0px" y="0px"
	 viewBox="0 0 48 40" style="enable-background:new 0 0 48 40;" xml:space="preserve">
<style type="text/css">
	.st0{fill:#7DBE42;}
	.st1{fill:#FFFFFF;}
</style>
<symbol  id="Auth_Icon" viewBox="-18.8 -15.8 37.5 30.5">
	<path id="XMLID_327_" class="st0" d="M15.8-15.8h-31.5c-1.6,0-3,1.3-3,3v24.5c0,1.6,1.4,3,3,3h31.5c1.6,0,3-1.4,3-3v-24.5
		C18.8-14.4,17.4-15.8,15.8-15.8z"/>
	<g id="XMLID_322_">
		<g id="XMLID_323_">
			<path id="XMLID_326_" class="st1" d="M9.6-5.7c-6.4,0-12.8,0-19.2,0c0,2.4,0,4.7,0,7c6.4,0,12.7,0,19.2,0
				C9.6-1.1,9.6-3.4,9.6-5.7z"/>
			<path id="XMLID_325_" class="st1" d="M-7.2,2.4c-0.5,2.7,0,5,3.5,6.4c2.6,1.1,5.2,1,7.8-0.1c3.3-1.5,3.7-3.7,3.2-6.3
				c-0.8,0-1.6,0-1.8,0c-1,1.6-1.7,3.1-2.8,4.4C2.2,7.4,0.8,7.5-0.2,7.5c-2.8,0-3.7-1.1-4.6-5.1C-5.5,2.4-6.3,2.4-7.2,2.4z"/>
			<path id="XMLID_324_" class="st1" d="M9.8-7.4C9.7-8,9.7-8.4,9.6-8.7C9.4-8.8,9.3-8.9,9.1-8.9C3.4-8.9-2.4-8.9-8.2-9
				C-9.9-9-10-8.4-9.6-7.4C-3.1-7.4,3.3-7.4,9.8-7.4z"/>
		</g>
	</g>
</symbol>
<g id="Rate_Limit_Icon">
	
		<use xlink:href="#Auth_Icon"  width="37.5" height="30.5" id="XMLID_281_" x="-18.8" y="-15.8" transform="matrix(1.28 0 0 -1.3115 24.0001 19.2945)" style="overflow:visible;"/>
</g>
</svg>
