<?xml version="1.0" encoding="utf-8"?>
<!-- Generator: Adobe Illustrator 18.0.0, SVG Export Plug-In . SVG Version: 6.00 Build 0)  -->
<!DOCTYPE svg PUBLIC "-//W3C//DTD SVG 1.1//EN" "http://www.w3.org/Graphics/SVG/1.1/DTD/svg11.dtd">
<svg version="1.1" id="Layer_1" xmlns="http://www.w3.org/2000/svg" xmlns:xlink="http://www.w3.org/1999/xlink" x="0px" y="0px"
	 viewBox="0 0 80 80" enable-background="new 0 0 80 80" xml:space="preserve">
<symbol  id="Profiler" viewBox="-120 -120 240 240">
	<g>
		<path fill="#A7A9AC" d="M120,0c0,66.3-53.7,120-120,120S-120,66.3-120,0S-66.3-120,0-120S120-66.3,120,0z"/>
	</g>
	<g>
		<path fill="#FFFFFF" d="M-38,12.8V48c0,2.2-1.8,4-4,4s-4-1.8-4-4V12.8c-7-1.8-12-8-12-15.5s5-13.7,12-15.5V-51c0-2.2,1.8-4,4-4
			s4,1.8,4,4v32.9c7,1.8,12,8,12,15.5S-31,11-38,12.8z M-42-10.7c-4.4,0-8,3.6-8,8s3.6,8,8,8s8-3.6,8-8S-37.6-10.7-42-10.7z"/>
	</g>
	<g>
		<path fill="#FFFFFF" d="M49,33.3V48c0,2.2-1.8,4-4,4s-4-1.8-4-4V33.3c-7-1.8-12-8-12-15.5S34,4.1,41,2.4V-51c0-2.2,1.8-4,4-4
			s4,1.8,4,4V2.4c7,1.8,12,8,12,15.5S56,31.5,49,33.3z M44.9,9.8c-4.4,0-8,3.6-8,8s3.6,8,8,8s8-3.6,8-8S49.3,9.8,44.9,9.8z"/>
	</g>
	<g>
		<path fill="#FFFFFF" d="M5-4.2V48c0,2.2-1.8,4-4,4s-4-1.8-4-4V-4.2c-7-1.8-12-8-12-15.5s5-13.7,12-15.5V-51c0-2.2,1.8-4,4-4
			s4,1.8,4,4v15.9c7,1.8,12,8,12,15.5S12-6,5-4.2z M1-27.7c-4.4,0-8,3.6-8,8s3.6,8,8,8s8-3.6,8-8S5.4-27.7,1-27.7z"/>
	</g>
	<polygon display="none" fill="none" points="-120,120 120,120 120,-120 -120,-120 	"/>
</symbol>
<use xlink:href="#Profiler"  width="240" height="240" id="XMLID_2_" x="-120" y="-120" transform="matrix(0.3333 0 0 -0.3333 40 40)" overflow="visible"/>
</svg>
