<?xml version="1.0" encoding="utf-8"?>
<!-- Generator: Adobe Illustrator 18.1.0, SVG Export Plug-In . SVG Version: 6.00 Build 0)  -->
<svg version="1.1" id="Layer_1" xmlns="http://www.w3.org/2000/svg" xmlns:xlink="http://www.w3.org/1999/xlink" x="0px" y="0px"
	 viewBox="0 0 80 80" enable-background="new 0 0 80 80" xml:space="preserve">
<g id="Composer">
	<g id="Profiler">
		<g>
			<circle fill="#659840" cx="40" cy="40" r="40"/>
		</g>
		<g>
			<path fill="#FFFFFF" d="M27,35.7V24c0-0.7-0.3-1.3-1-1.3s-1,0.6-1,1.3v11.7c-3,0.6-4,2.7-4,5.2c0,2.5,1,4.6,4,5.2v11
				c0,0.7,0.3,1.3,1,1.3s1-0.6,1-1.3V46c3-0.6,4-2.7,4-5.2C31,38.4,30,36.3,27,35.7z M26,43.6c-1.5,0-2.7-1.2-2.7-2.7
				c0-1.5,1.2-2.7,2.7-2.7s2.7,1.2,2.7,2.7C28.7,42.4,27.5,43.6,26,43.6z"/>
		</g>
		<g>
			<path fill="#FFFFFF" d="M56,28.9V24c0-0.7-0.3-1.3-1-1.3s-1,0.6-1,1.3v4.9c-3,0.6-4,2.7-4,5.2c0,2.5,1,4.6,4,5.2V57
				c0,0.7,0.3,1.3,1,1.3s1-0.6,1-1.3V39.2c3-0.6,4-2.7,4-5.2C60,31.6,59,29.5,56,28.9z M55,36.7c-1.5,0-2.7-1.2-2.7-2.7
				c0-1.5,1.2-2.7,2.7-2.7c1.5,0,2.7,1.2,2.7,2.7C57.6,35.5,56.4,36.7,55,36.7z"/>
		</g>
		<g>
			<path fill="#FFFFFF" d="M42,41.4V24c0-0.7-0.8-1.3-1.5-1.3S39,23.3,39,24v17.4c-2.3,0.6-4,2.7-4,5.2c0,2.5,1.7,4.6,4,5.2V57
				c0,0.7,0.8,1.3,1.5,1.3S42,57.7,42,57v-5.3c2-0.6,4-2.7,4-5.2C46,44.1,44,42,42,41.4z M40.3,49.2c-1.5,0-2.7-1.2-2.7-2.7
				c0-1.5,1.2-2.7,2.7-2.7c1.5,0,2.7,1.2,2.7,2.7C43,48,41.8,49.2,40.3,49.2z"/>
		</g>
	</g>
</g>
</svg>
