<?xml version="1.0" encoding="utf-8"?>
<!-- Generator: Adobe Illustrator 18.1.0, SVG Export Plug-In . SVG Version: 6.00 Build 0)  -->
<svg version="1.1" id="Layer_1" xmlns="http://www.w3.org/2000/svg" xmlns:xlink="http://www.w3.org/1999/xlink" x="0px" y="0px"
	 viewBox="6 96 600 600" enable-background="new 6 96 600 600" xml:space="preserve">
<g>
	<path fill="#EEEEEE" d="M306,681c-76.1,0-147.7-29.7-201.5-83.5C50.6,543.7,21,472.1,21,396s29.7-147.7,83.5-201.5
		C158.3,140.6,229.9,111,306,111s147.7,29.7,201.5,83.5C561.4,248.3,591,319.9,591,396s-29.7,147.7-83.5,201.5S382.1,681,306,681z"
		/>
	<path fill="#AAAAAA" d="M306,120.9c37.1,0,73.2,7.3,107.1,21.6c32.8,13.9,62.2,33.7,87.4,59s45.1,54.7,59,87.4
		c14.3,33.9,21.6,69.9,21.6,107.1s-7.3,73.2-21.6,107.1c-13.9,32.8-33.7,62.2-59,87.4s-54.7,45.1-87.4,59
		c-33.9,14.3-69.9,21.6-107.1,21.6s-73.2-7.3-107.1-21.6c-32.8-13.9-62.2-33.7-87.4-59s-45.1-54.7-59-87.4
		C38.2,469.2,30.9,433.1,30.9,396s7.3-73.2,21.6-107.1c13.9-32.8,33.7-62.2,59-87.4s54.7-45.1,87.4-59
		C232.8,128.2,268.9,120.9,306,120.9 M306,101C143.1,101,11,233.1,11,396s132.1,295,295,295s295-132.1,295-295S468.9,101,306,101
		L306,101z"/>
</g>
</svg>
