<?xml version="1.0" encoding="utf-8"?>
<!-- Generator: Adobe Illustrator 18.1.0, SVG Export Plug-In . SVG Version: 6.00 Build 0)  -->
<svg version="1.1" id="Layer_1" xmlns="http://www.w3.org/2000/svg" xmlns:xlink="http://www.w3.org/1999/xlink" x="0px" y="0px"
	 viewBox="6 96 600 600" enable-background="new 6 96 600 600" xml:space="preserve">
<g>
	<path fill="#EEEEEE" d="M306,681c-76.1,0-147.7-29.6-201.5-83.5S21,472.1,21,396s29.6-147.7,83.5-201.5S229.9,111,306,111
		s147.7,29.6,201.5,83.5S591,319.9,591,396s-29.6,147.7-83.5,201.5S382.1,681,306,681z"/>
	<path fill="#4A90E2" d="M306,121c37.1,0,73.1,7.3,107,21.6c32.7,13.9,62.2,33.7,87.4,59c25.3,25.3,45.1,54.7,59,87.4
		c14.3,33.9,21.6,69.9,21.6,107s-7.3,73.1-21.6,107c-13.9,32.7-33.7,62.2-59,87.4c-25.3,25.3-54.7,45.1-87.4,59
		c-33.9,14.3-69.9,21.6-107,21.6s-73.1-7.3-107-21.6c-32.7-13.9-62.2-33.7-87.4-59s-45.1-54.7-59-87.4C38.3,469.1,31,433.1,31,396
		s7.3-73.1,21.6-107c13.9-32.7,33.7-62.2,59-87.4s54.7-45.1,87.4-59C232.9,128.3,268.9,121,306,121 M306,101
		C143.1,101,11,233.1,11,396s132.1,295,295,295s295-132.1,295-295S468.9,101,306,101L306,101z"/>
</g>
<path fill="#4A90E2" d="M306,514.5c65.4,0,118.5-53,118.5-118.5s-53-118.5-118.5-118.5s-118.5,53-118.5,118.5S240.6,514.5,306,514.5
	z"/>
</svg>
