<?xml version="1.0" encoding="UTF-8" standalone="no"?>
<svg width="30px" height="30px" viewBox="0 0 30 30" version="1.1" xmlns="http://www.w3.org/2000/svg" xmlns:xlink="http://www.w3.org/1999/xlink">
    <defs></defs>
    <g id="Page-1" stroke="none" stroke-width="1" fill="none" fill-rule="evenodd">
        <g id="restart" fill="#4A90E2">
            <path d="M30.0008385,2.4943287 L30.0008385,11.7175158 L20.5712548,11.7175158 L23.5880517,8.7667512 C21.686588,6.19599311 18.5940372,4.52342986 15.1020963,4.52342986 C10.5096098,4.52342986 6.60793418,7.4164041 5.19802122,11.4408202 L0.485379904,11.4408202 C2.00533115,4.94351314 7.95140874,0.0963000523 15.0549484,0.0963000523 C19.8067984,0.0963000523 24.0407048,2.26534203 26.7782276,5.64640251 L30.0008385,2.4943287 Z" id="Rectangle-44"></path>
            <path d="M15.1650671,29.8529531 C22.3898683,29.8529531 28.4263347,24.8043278 29.8869344,18.068482 L25.2846306,18.068482 C23.9496291,22.3286853 19.9451482,25.421992 15.2125714,25.421992 C11.620901,25.421992 8.44858991,23.6403495 6.54424716,20.9191285 L9.70207619,17.7856547 L0.201222441,17.7856547 L0.201222441,27.2132316 L3.31130081,24.1271402 C6.06810571,27.6132814 10.3530018,29.8529531 15.1650671,29.8529531 Z" id="Path"></path>
        </g>
    </g>
</svg>