<?xml version="1.0" encoding="utf-8"?>
<!-- Generator: Adobe Illustrator 18.1.0, SVG Export Plug-In . SVG Version: 6.00 Build 0)  -->
<svg version="1.1" id="Layer_1" xmlns="http://www.w3.org/2000/svg" xmlns:xlink="http://www.w3.org/1999/xlink" x="0px" y="0px"
	 viewBox="0 0 24 24" enable-background="new 0 0 24 24" xml:space="preserve">
<path fill="#7DBD42" d="M15.7,15h-0.8l-0.3-0.7c1-1.1,1.6-2.8,1.6-4.4c0-3.6-2.9-6.6-6.5-6.6S3.2,6.2,3.2,9.8c0,3.6,2.9,6.5,6.5,6.5
	c1.6,0,3-0.6,4.1-1.6l0.2,0.3v0.8l5.1,5l1.5-1.1L15.7,15z M9.7,14.2c-2.5,0-4.5-2-4.5-4.5c0-2.5,2-4.5,4.5-4.5c2.5,0,4.5,2,4.5,4.5
	C14.2,12.2,12.2,14.2,9.7,14.2z"/>
</svg>
