<?xml version="1.0" encoding="utf-8"?>
<!-- Generator: Adobe Illustrator 14.0.0, SVG Export Plug-In . SVG Version: 6.00 Build 43363)  -->
<!DOCTYPE svg PUBLIC "-//W3C//DTD SVG 1.1//EN" "http://www.w3.org/Graphics/SVG/1.1/DTD/svg11.dtd">
<svg version="1.1" id="Layer_1" xmlns="http://www.w3.org/2000/svg" xmlns:xlink="http://www.w3.org/1999/xlink" x="0px" y="0px"
	 width="255.163px" height="37.034px" viewBox="0 0 255.163 37.034" enable-background="new 0 0 255.163 37.034"
	 xml:space="preserve">
<g>
	<path fill-rule="evenodd" clip-rule="evenodd" fill="#09572B" d="M164.733,18.635c0,1.725-0.246,3.294-0.738,4.712
		c-0.492,1.416-1.188,2.626-2.091,3.627c-0.901,1-1.987,1.777-3.259,2.334s-2.672,0.833-4.202,0.833
		c-1.532,0-2.925-0.277-4.183-0.833s-2.337-1.334-3.238-2.334c-0.902-1-1.605-2.211-2.111-3.627
		c-0.506-1.418-0.759-2.987-0.759-4.712c0-1.722,0.253-3.285,0.759-4.689c0.506-1.403,1.216-2.606,2.131-3.606
		c0.916-1.001,2.003-1.771,3.26-2.314c1.258-0.542,2.638-0.813,4.142-0.813c1.503,0,2.89,0.271,4.161,0.813
		c1.271,0.542,2.357,1.313,3.259,2.314c0.902,1,1.606,2.203,2.111,3.606C164.48,15.35,164.733,16.913,164.733,18.635
		 M159.649,18.635c0-2.167-0.458-3.883-1.373-5.147c-0.916-1.265-2.193-1.897-3.833-1.897c-1.641,0-2.918,0.633-3.833,1.897
		c-0.917,1.265-1.374,2.98-1.374,5.147c0,2.196,0.457,3.933,1.374,5.212c0.915,1.277,2.192,1.916,3.833,1.916
		c1.64,0,2.917-0.639,3.833-1.916C159.191,22.568,159.649,20.832,159.649,18.635"/>
	<path fill-rule="evenodd" clip-rule="evenodd" fill="#09572B" d="M187.879,18.635c0,1.725-0.246,3.294-0.738,4.712
		c-0.492,1.416-1.189,2.626-2.092,3.627c-0.901,1-1.987,1.777-3.258,2.334c-1.271,0.557-2.673,0.833-4.203,0.833
		c-1.531,0-2.925-0.277-4.182-0.833c-1.258-0.557-2.338-1.334-3.239-2.334c-0.901-1-1.605-2.211-2.11-3.627
		c-0.506-1.418-0.76-2.987-0.76-4.712c0-1.722,0.254-3.285,0.76-4.689c0.505-1.403,1.215-2.606,2.131-3.606
		c0.916-1.001,2.002-1.771,3.26-2.314c1.258-0.542,2.637-0.813,4.141-0.813c1.503,0,2.89,0.271,4.161,0.813
		c1.271,0.542,2.358,1.313,3.259,2.314c0.902,1,1.605,2.203,2.111,3.606C187.625,15.35,187.879,16.913,187.879,18.635
		 M182.795,18.635c0-2.167-0.458-3.883-1.374-5.147c-0.915-1.265-2.192-1.897-3.833-1.897s-2.918,0.633-3.833,1.897
		c-0.917,1.265-1.374,2.98-1.374,5.147c0,2.196,0.457,3.933,1.374,5.212c0.915,1.277,2.192,1.916,3.833,1.916
		s2.918-0.639,3.833-1.916C182.337,22.568,182.795,20.832,182.795,18.635"/>
	<path fill-rule="evenodd" clip-rule="evenodd" fill="#09572B" d="M210.885,18.678c0,1.667-0.213,3.195-0.635,4.585
		c-0.426,1.39-1.033,2.585-1.824,3.585c-0.795,1-1.784,1.779-2.974,2.334c-1.188,0.556-2.536,0.833-4.038,0.833
		c-1.012,0-1.941-0.124-2.788-0.375c-0.847-0.25-1.544-0.528-2.091-0.833v5.316l-4.961,2.907V8.463
		c1.012-0.277,2.255-0.542,3.731-0.792c1.476-0.25,3.033-0.375,4.673-0.375c1.694,0,3.211,0.264,4.551,0.792
		c1.34,0.529,2.48,1.285,3.423,2.271c0.944,0.986,1.668,2.182,2.174,3.585C210.631,15.35,210.885,16.927,210.885,18.678
		 M205.801,18.761c0-2.252-0.498-4.002-1.496-5.253c-0.998-1.251-2.604-1.877-4.817-1.877c-0.466,0-0.95,0.021-1.456,0.063
		c-0.506,0.042-1.004,0.131-1.496,0.27V24.43c0.437,0.307,1.018,0.592,1.742,0.854c0.725,0.266,1.496,0.397,2.317,0.397
		c1.804,0,3.121-0.625,3.956-1.877C205.385,22.555,205.801,20.873,205.801,18.761"/>
	<path fill-rule="evenodd" clip-rule="evenodd" fill="#09572B" d="M35.428,24.905c-0.405,0.162-0.944,0.338-1.619,0.525
		c-0.697,0.195-1.497,0.292-2.398,0.292c-1.312,0-2.242-0.375-2.788-1.126c-0.547-0.75-0.82-2-0.82-3.752v-8.88h7.625v-4.21h-7.625
		V0.658l-4.961,2.918v17.311c0,1.445,0.124,2.729,0.37,3.855c0.246,1.126,0.669,2.085,1.271,2.877
		c0.601,0.792,1.414,1.396,2.439,1.813c1.025,0.416,2.302,0.625,3.833,0.625c1.256,0,2.35-0.133,3.279-0.397
		c0.523-0.149,0.983-0.295,1.394-0.438V24.905L35.428,24.905z M35.428,24.905"/>
	<path fill-rule="evenodd" clip-rule="evenodd" fill="#09572B" d="M52.013,7.793c-0.025-0.006-0.042-0.011-0.067-0.018
		c-0.41-0.097-0.834-0.181-1.271-0.251c-0.438-0.069-0.875-0.125-1.312-0.167c-0.437-0.042-0.821-0.062-1.148-0.062
		c-1.749,0-3.341,0.159-4.776,0.479c-1.435,0.319-2.63,0.66-3.587,1.021v20.762h4.961V12.09c0.246-0.083,0.676-0.18,1.291-0.292
		c0.615-0.11,1.196-0.167,1.743-0.167c0.956,0,1.797,0.077,2.521,0.23c0.695,0.146,1.241,0.286,1.646,0.42V7.793L52.013,7.793z
		 M52.013,7.793"/>
	<path fill-rule="evenodd" clip-rule="evenodd" fill="#09572B" d="M115.784,7.671c-1.448-0.25-2.979-0.375-4.591-0.375
		c-1.668,0-3.158,0.265-4.47,0.792c-1.312,0.529-2.426,1.264-3.342,2.208c-0.915,0.946-1.612,2.085-2.091,3.419
		s-0.717,2.793-0.717,4.378c0,1.695,0.225,3.188,0.676,4.481c0.452,1.292,1.08,2.37,1.887,3.231
		c0.805,0.861,1.776,1.515,2.911,1.959c1.134,0.443,2.384,0.667,3.751,0.667c1.038,0,1.961-0.125,2.768-0.376
		c0.806-0.25,1.455-0.5,1.947-0.749v0.47c0,1.639-0.424,2.877-1.271,3.71s-2.269,1.25-4.264,1.25c-1.258,0-2.426-0.11-3.506-0.333
		c-1.066-0.22-2.019-0.508-2.859-0.864v4.567c0.766,0.229,1.568,0.434,2.449,0.592c1.244,0.222,2.522,0.334,3.834,0.334
		c3.58,0,6.238-0.808,7.975-2.418c1.734-1.613,2.604-4.155,2.604-7.63V8.463C118.462,8.187,117.232,7.921,115.784,7.671
		L115.784,7.671L115.784,7.671z M114.513,23.137c-0.438,0.308-1.006,0.571-1.701,0.792c-0.697,0.223-1.443,0.333-2.234,0.333
		c-1.449,0-2.631-0.492-3.547-1.48c-0.916-0.985-1.373-2.549-1.373-4.689c0-1.974,0.478-3.565,1.436-4.773
		c0.955-1.21,2.336-1.814,4.14-1.814c0.792,0,1.449,0.035,1.968,0.104c0.52,0.07,0.957,0.146,1.312,0.229V23.137L114.513,23.137z
		 M114.513,23.137"/>
	<path fill-rule="evenodd" clip-rule="evenodd" fill="#09572B" d="M18.613,18.489c-0.383-0.958-0.937-1.792-1.661-2.5
		c-0.724-0.708-1.613-1.32-2.665-1.834c-1.052-0.515-2.249-1.022-3.587-1.522c-0.766-0.278-1.47-0.57-2.112-0.876
		c-0.642-0.305-1.203-0.639-1.681-1C6.43,10.395,6.06,9.984,5.802,9.527c-0.261-0.458-0.39-1.007-0.39-1.647
		c0-1.055,0.39-1.875,1.168-2.46c0.779-0.583,1.866-0.875,3.259-0.875c1.175,0,2.317,0.14,3.423,0.417
		c1.107,0.278,2.34,0.836,3.055,1.209c0.389,0.203,0.822,0.476,1.14,0.686V1.673c-0.738-0.379-1.664-0.736-2.8-1.068
		C13.276,0.203,11.697,0,9.921,0C6.86,0,4.441,0.744,2.665,2.231C0.888,3.718,0,5.768,0,8.38c0,1.25,0.211,2.321,0.635,3.209
		c0.424,0.89,0.985,1.654,1.681,2.293c0.698,0.64,1.503,1.175,2.419,1.605c0.916,0.431,1.866,0.827,2.85,1.188
		c0.983,0.333,1.858,0.674,2.623,1.021c0.766,0.348,1.415,0.723,1.948,1.125c0.532,0.404,0.942,0.855,1.229,1.355
		c0.288,0.5,0.43,1.1,0.43,1.792c0,1.167-0.424,2.072-1.27,2.711c-0.849,0.639-2.201,0.959-4.059,0.959
		c-1.777,0-3.294-0.21-4.551-0.625c-1.257-0.418-2.363-0.917-2.993-1.251c-0.227-0.12-0.435-0.248-0.621-0.373v5.123
		c0.136,0.063,0.262,0.125,0.416,0.19c0.546,0.238,1.195,0.467,1.947,0.69c0.751,0.221,1.612,0.408,2.583,0.562
		c0.97,0.152,2.043,0.229,3.219,0.229c3.498,0,6.156-0.714,7.974-2.147c1.817-1.431,2.727-3.453,2.727-6.066
		C19.187,20.608,18.995,19.449,18.613,18.489"/>
	<path fill-rule="evenodd" clip-rule="evenodd" fill="#09572B" d="M74.308,18.635c0,1.725-0.246,3.294-0.739,4.712
		c-0.491,1.416-1.188,2.626-2.091,3.627c-0.902,1-1.988,1.777-3.259,2.334c-1.271,0.557-2.673,0.833-4.202,0.833
		c-1.532,0-2.926-0.277-4.183-0.833s-2.337-1.334-3.239-2.334c-0.901-1-1.605-2.211-2.11-3.627
		c-0.506-1.418-0.759-2.987-0.759-4.712c0-1.722,0.253-3.285,0.759-4.689c0.505-1.403,1.216-2.606,2.132-3.606
		c0.915-1.001,2.002-1.771,3.26-2.314c1.257-0.542,2.637-0.813,4.141-0.813c1.502,0,2.889,0.271,4.16,0.813
		c1.271,0.542,2.358,1.313,3.26,2.314c0.902,1,1.605,2.203,2.111,3.606C74.054,15.35,74.308,16.913,74.308,18.635 M69.223,18.635
		c0-2.167-0.458-3.883-1.374-5.147c-0.915-1.265-2.192-1.897-3.832-1.897c-1.641,0-2.918,0.633-3.834,1.897s-1.373,2.98-1.373,5.147
		c0,2.196,0.457,3.933,1.373,5.212c0.916,1.277,2.193,1.916,3.834,1.916c1.64,0,2.917-0.639,3.832-1.916
		C68.765,22.568,69.223,20.832,69.223,18.635"/>
	<path fill-rule="evenodd" clip-rule="evenodd" fill="#09572B" d="M78.646,8.463c0.957-0.277,2.201-0.542,3.732-0.792
		c1.529-0.25,3.225-0.375,5.083-0.375c1.749,0,3.211,0.244,4.388,0.729c1.174,0.487,2.11,1.168,2.807,2.044
		c0.697,0.875,1.189,1.932,1.477,3.168c0.287,1.237,0.431,2.593,0.431,4.065v12.257h-4.962V18.094c0-1.167-0.074-2.161-0.225-2.981
		c-0.15-0.819-0.396-1.486-0.738-2.001c-0.342-0.514-0.806-0.889-1.394-1.125c-0.588-0.236-1.306-0.355-2.152-0.355
		c-0.63,0-1.285,0.042-1.968,0.125c-0.684,0.083-1.189,0.154-1.517,0.208v17.594h-4.962V8.463L78.646,8.463z M78.646,8.463"/>
	<path fill-rule="evenodd" clip-rule="evenodd" fill="#09572B" d="M142.663,25.015v4.544H126.01V0.667h5.166v24.348H142.663
		L142.663,25.015z M142.663,25.015"/>
	<path fill-rule="evenodd" clip-rule="evenodd" fill="#09572B" d="M243,6.552V2.6l-3.365-1.978L236.264,2.6v3.952l3.371,1.976
		L243,6.552L243,6.552z M243,6.552"/>
	<path fill-rule="evenodd" clip-rule="evenodd" fill="#FFFFFF" d="M230.801,29.351l2.111-1.24l2.111,1.24v2.477l-2.111,1.239
		l-2.111-1.239V29.351L230.801,29.351z M230.801,29.351"/>
	<path fill-rule="evenodd" clip-rule="evenodd" fill="#FFFFFF" d="M243.594,8.163l-5.578,3.274v2.953l1.566,0.921v3.593l3.812,2.237
		v-6.612l5.52-3.24L243.594,8.163L243.594,8.163z M243.594,8.163"/>
	<path fill-rule="evenodd" clip-rule="evenodd" fill="#09572B" d="M238.016,11.437l3.285-1.929l-1.666-0.979l-4.111,2.412v1.984
		l-0.002-0.001l-4.066,2.386v4.772l4.066,2.388l4.061-2.388v-4.772l-1.566-0.921V11.437L238.016,11.437z M238.016,11.437"/>
	<path fill-rule="evenodd" clip-rule="evenodd" fill="#09572B" d="M224.139,18.381l2.715-1.594l2.717,1.594v3.187l-2.717,1.593
		l-2.715-1.593V18.381L224.139,18.381z M224.139,18.381"/>
	<path fill-rule="evenodd" clip-rule="evenodd" fill="#FFFFFF" d="M229.18,21.798l-2.326,1.363l-1.143-0.67l-1.572,0.923v4.572
		l3.898,2.287l3.889-2.287v-4.572L229.18,21.798L229.18,21.798z M229.18,21.798"/>
	<path fill-rule="evenodd" clip-rule="evenodd" fill="#09572B" d="M218.235,9.79l1.688-0.99l1.686,0.99v1.979l-1.686,0.99
		l-1.688-0.99V9.79L218.235,9.79z M218.235,9.79"/>
	<path fill-rule="evenodd" clip-rule="evenodd" fill="#FFFFFF" d="M215.588,11.979l0.92-0.542l0.922,0.542v1.079l-0.922,0.541
		l-0.92-0.541V11.979L215.588,11.979z M215.588,11.979"/>
	<path fill-rule="evenodd" clip-rule="evenodd" fill="#FFFFFF" d="M220.735,18.216l-1.34,0.786v-0.687l-0.92-0.539l-0.92,0.539
		v1.082l0.92,0.541l0.574-0.339v1.584l1.686,0.99l1.684-0.99v-1.979L220.735,18.216L220.735,18.216z M220.735,18.216"/>
	<path fill-rule="evenodd" clip-rule="evenodd" fill="#09572B" d="M216.331,21.93l0.92-0.541l0.92,0.541v1.082l-0.92,0.539
		l-0.92-0.539V21.93L216.331,21.93z M216.331,21.93"/>
	<path fill-rule="evenodd" clip-rule="evenodd" fill="#09572B" d="M211.467,7.997l0.918-0.54l0.922,0.54v1.081l-0.922,0.54
		l-0.918-0.54V7.997L211.467,7.997z M211.467,7.997"/>
	<path fill-rule="evenodd" clip-rule="evenodd" fill="#09572B" d="M229.305,6.725l2.832-1.661l2.826,1.661v3.321l-2.826,1.661
		l-2.832-1.661V6.725L229.305,6.725z M229.305,6.725"/>
	<path fill-rule="evenodd" clip-rule="evenodd" fill="#FFFFFF" d="M229.305,10.046V8.408l-1.451-0.852l-3.713,2.18v4.36l3.713,2.179
		l3.713-2.179v-2.723L229.305,10.046L229.305,10.046z M229.305,10.046"/>
	<path fill-rule="evenodd" clip-rule="evenodd" fill="#FFFFFF" d="M225.481,30.912h-0.516v1.489h-0.199v-1.489h-0.516v-0.157h1.23
		V30.912L225.481,30.912z M227.442,32.401h-0.199v-1.475h-0.008l-0.557,1.475h-0.131l-0.559-1.475h-0.008v1.475h-0.199v-1.646h0.369
		l0.461,1.216h0.008l0.453-1.216h0.369V32.401L227.442,32.401z M227.442,32.401"/>
	<path fill-rule="evenodd" clip-rule="evenodd" fill="#FFFFFF" d="M241.954,25.648l4.275-2.512l4.273,2.512v5.019l-4.273,2.507
		l-4.275-2.507V25.648L241.954,25.648z M241.954,25.648"/>
	<path fill-rule="evenodd" clip-rule="evenodd" fill="#09572B" d="M247.053,4.974l-3.459,2.032v1.158l5.32,3.126l-5.52,3.24v8.859
		l-3.744-2.199l-6.736,3.958v2.965l2.109,1.239v2.477l-2.1,1.232l6.727,3.95l6.555-3.849l-4.252-2.494v-5.019l4.275-2.512
		l4.273,2.512v5.019l4.66-2.737V9.727L247.053,4.974L247.053,4.974z M247.053,4.974"/>
</g>
</svg>
