<?xml version="1.0" encoding="UTF-8" standalone="no"?>
<svg width="14px" height="15px" viewBox="0 0 14 15" version="1.1" xmlns="http://www.w3.org/2000/svg" xmlns:xlink="http://www.w3.org/1999/xlink" xmlns:sketch="http://www.bohemiancoding.com/sketch/ns">
    <!-- Generator: Sketch 3.2.2 (9983) - http://www.bohemiancoding.com/sketch -->
    <title>Imported Layers 20</title>
    <desc>Created with Sketch.</desc>
    <defs></defs>
    <g id="Direction-2" stroke="none" stroke-width="1" fill="none" fill-rule="evenodd" sketch:type="MSPage">
        <g id="Styleguide_Form-Elements" sketch:type="MSArtboardGroup" transform="translate(-1203.000000, -244.000000)" fill="#BBBBBB">
            <g id="Search---Select" sketch:type="MSLayerGroup" transform="translate(1021.000000, 230.670000)">
                <path d="M189.798318,20.6885 L195.146955,15.3405 C195.453682,15.0331364 195.453682,14.5367727 195.146955,14.2300455 C194.840227,13.9233182 194.343864,13.9233182 194.037136,14.2300455 L188.6885,19.5786818 L183.339864,14.2300455 C183.033773,13.9233182 182.536136,13.9233182 182.230045,14.2300455 C181.923318,14.5367727 181.923318,15.0331364 182.230045,15.3405 L187.578682,20.6885 L182.230045,26.0371364 C181.923318,26.3432273 181.923318,26.8408636 182.230045,27.1469545 C182.383409,27.3003182 182.5845,27.3773182 182.784955,27.3773182 C182.985409,27.3773182 183.1865,27.3003182 183.339864,27.1469545 L188.6885,21.7983182 L194.037136,27.1469545 C194.1905,27.3003182 194.390955,27.3773182 194.592045,27.3773182 C194.793136,27.3773182 194.994227,27.3003182 195.146955,27.1469545 C195.453682,26.8408636 195.453682,26.3432273 195.146955,26.0371364 L189.798318,20.6885" id="Imported-Layers-20" sketch:type="MSShapeGroup"></path>
            </g>
        </g>
    </g>
</svg>