<?xml version="1.0" encoding="utf-8"?>
<!-- Generator: Adobe Illustrator 18.1.0, SVG Export Plug-In . SVG Version: 6.00 Build 0)  -->
<svg version="1.1" id="Layer_1" xmlns="http://www.w3.org/2000/svg" xmlns:xlink="http://www.w3.org/1999/xlink" x="0px" y="0px"
	 viewBox="6 96 600 600" enable-background="new 6 96 600 600" xml:space="preserve">
<circle fill="#558DCA" cx="306" cy="396" r="295"/>
<path fill="#FFFFFF" d="M327.8,396L434,290c6-5.9,6-15.9,0-21.8c-6-5.9-15.9-5.9-21.8,0L306,374.2l-106.2-106
	c-6-5.9-15.9-5.9-21.8,0s-6,15.9,0,21.8l106.2,106L178,502c-6,5.9-6,15.9,0,21.8c3,3,6.9,5,10.9,5s7.9-2,10.9-5l106.2-106l106.2,106
	c3,3,6.9,5,10.9,5c4,0,7.9-2,10.9-5c6-5.9,6-15.9,0-21.8L327.8,396"/>
</svg>
