<?xml version="1.0" encoding="utf-8"?>
<!-- Generator: Adobe Illustrator 18.1.0, SVG Export Plug-In . SVG Version: 6.00 Build 0)  -->
<svg version="1.1" id="Layer_1" xmlns="http://www.w3.org/2000/svg" xmlns:xlink="http://www.w3.org/1999/xlink" x="0px" y="0px"
	 viewBox="6 96 600 600" enable-background="new 6 96 600 600" xml:space="preserve">
<path fill="#BCBCBB" d="M327.7,396l105.6-105.6c5.9-5.9,5.9-15.8,0-21.7c-5.9-5.9-15.8-5.9-21.7,0L306,374.3L200.4,268.7
	c-5.9-5.9-15.8-5.9-21.7,0c-5.9,5.9-5.9,15.8,0,21.7L284.3,396L178.7,501.6c-5.9,5.9-5.9,15.8,0,21.7c3,3,6.9,4.9,10.9,4.9
	c3.9,0,7.9-2,10.9-4.9L306,417.7l105.6,105.6c3,3,6.9,4.9,10.9,4.9c3.9,0,7.9-2,10.9-4.9c5.9-5.9,5.9-15.8,0-21.7L327.7,396"/>
</svg>
